<svg id="_3D-GPU" data-name="3D-GPU" xmlns="http://www.w3.org/2000/svg" viewBox="0 0 362.81 237"><defs><style>.cls-1{fill:#30c8d9;}.cls-2{fill:#163040;}.cls-3{fill:#268ea6;}.cls-4{fill:#0c1b23;}.cls-5{fill:#2da6c2;}.cls-6{isolation:isolate;}.cls-7{fill:#af5f19;}.cls-8{fill:#7f4412;}.cls-9{fill:#d2721e;}</style></defs><polyline id="Bottom" class="cls-1" points="81.34 207.8 81.34 235.8 38.34 196.8 38.34 168.8"/><polygon class="cls-1" points="75.08 237 81.34 235.8 72.47 227.75 75.08 237"/><polygon id="Front" class="cls-1" points="360.08 152 75.08 209 75.08 96 360.08 39 360.08 152"/><polygon id="Front-2" data-name="Front" class="cls-2" points="123.45 199.33 123.45 211.25 200.95 195.75 200.95 183.83 123.45 199.33"/><g id="Bacl"><polygon class="cls-3" points="32.08 170 75.08 209 75.08 96 32.08 57 32.08 170"/><polyline id="Bottom-2" data-name="Bottom" class="cls-3" points="75.08 209 75.08 237 32.08 198 32.08 170"/></g><polygon id="Bottom-3" data-name="Bottom" class="cls-4" points="112.68 201.48 123.45 211.25 123.45 199.33 112.68 201.48"/><g id="Top"><polygon class="cls-3" points="43 108.17 75.08 101.75 75.08 96 43 102.42 0 63.42 0 69.17 43 108.17"/><polygon class="cls-5" points="75.08 96 43 102.42 0 63.42 32.08 57 75.08 96"/><polyline class="cls-5" points="32.08 57 317.08 0 360.08 39 75.08 96 32.08 57"/></g><polygon class="cls-1" points="43 102.42 43 108.17 360.08 44.75 360.08 39 43 102.42"/><g class="cls-6"><polygon class="cls-7" points="88.13 171.92 85.49 170.61 95.85 168.6 98.48 169.91 88.13 171.92"/><polygon class="cls-8" points="98.48 169.91 95.85 168.6 95.8 145.41 98.43 146.72 98.48 169.91"/><polygon class="cls-8" points="98.4 135.14 95.77 133.83 95.73 116.44 98.36 117.75 98.4 135.14"/><polygon class="cls-7" points="98.36 117.75 95.73 116.44 106.1 114.43 108.73 115.74 98.36 117.75"/><polygon class="cls-7" points="77.68 139.17 75.04 137.85 95.77 133.83 98.4 135.14 77.68 139.17"/><polygon class="cls-8" points="77.79 185.52 75.15 184.21 75.04 137.85 77.68 139.17 77.79 185.52"/><path class="cls-9" d="M356.78,306.26l10.37-2L367.3,368l-31.09,6-.11-46.35,20.72-4Zm.12,52.15,0-23.19-10.36,2,.06,23.18,10.35-2" transform="translate(-258.42 -188.5)"/></g><g class="cls-6"><polygon class="cls-8" points="134.77 162.86 132.13 161.54 132.12 155.74 134.75 157.06 134.77 162.86"/><polygon class="cls-7" points="124.4 164.87 121.77 163.56 132.13 161.54 134.77 162.86 124.4 164.87"/><polygon class="cls-8" points="134.72 145.47 132.09 144.16 132.08 138.36 134.71 139.67 134.72 145.47"/><polygon class="cls-7" points="113.99 149.5 111.36 148.19 132.09 144.16 134.72 145.47 113.99 149.5"/><polygon class="cls-8" points="114.06 178.47 111.43 177.16 111.36 148.19 113.99 149.5 114.06 178.47"/><polygon class="cls-8" points="113.98 143.7 111.34 142.39 111.32 130.81 113.95 132.12 113.98 143.7"/><polygon class="cls-7" points="113.95 132.12 111.32 130.81 142.41 124.76 145.04 126.07 113.95 132.12"/><path class="cls-9" d="M372.37,320.62l31.09-6.05.11,46.36-31.09,6-.07-29,20.74-4,0-5.8-20.73,4Zm20.82,30.74,0-5.8-10.36,2v5.8l10.37-2" transform="translate(-258.42 -188.5)"/></g><g class="cls-6"><polygon class="cls-7" points="170.96 121.04 168.32 119.72 178.69 117.71 181.32 119.02 170.96 121.04"/><polygon class="cls-8" points="160.7 169.41 158.07 168.09 157.99 133.32 160.62 134.64 160.7 169.41"/><polygon class="cls-8" points="160.59 123.05 157.96 121.74 157.92 104.35 160.55 105.67 160.59 123.05"/><polygon class="cls-7" points="160.55 105.67 157.92 104.35 168.28 102.34 170.92 103.65 160.55 105.67"/><polygon class="cls-7" points="150.23 125.07 147.6 123.75 157.96 121.74 160.59 123.05 150.23 125.07"/><polygon class="cls-8" points="150.26 136.65 147.63 135.34 147.6 123.75 150.23 125.07 150.26 136.65"/><polygon class="cls-9" points="170.92 103.65 170.96 121.04 181.32 119.02 181.35 130.61 170.99 132.62 171.07 167.39 160.7 169.41 160.62 134.64 150.26 136.65 150.23 125.07 160.59 123.05 160.55 105.67 170.92 103.65"/></g><g class="cls-6"><polygon class="cls-8" points="207.31 148.76 204.68 147.44 204.67 141.64 207.3 142.96 207.31 148.76"/><polygon class="cls-7" points="196.95 150.77 194.32 149.46 204.68 147.44 207.31 148.76 196.95 150.77"/><polygon class="cls-8" points="207.27 131.37 204.64 130.06 204.63 124.26 207.26 125.57 207.27 131.37"/><polygon class="cls-7" points="186.54 135.4 183.91 134.09 204.64 130.06 207.27 131.37 186.54 135.4"/><polygon class="cls-8" points="186.61 164.37 183.98 163.06 183.91 134.09 186.54 135.4 186.61 164.37"/><polygon class="cls-8" points="186.53 129.6 183.9 128.28 183.87 116.7 186.5 118.02 186.53 129.6"/><polygon class="cls-7" points="186.5 118.02 183.87 116.7 214.97 110.66 217.6 111.97 186.5 118.02"/><path class="cls-9" d="M444.92,306.51l31.1-6,.11,46.35L445,352.87l-.06-29,20.72-4v-5.8l-20.73,4Zm20.81,30.75v-5.8l-10.36,2v5.8l10.36-2" transform="translate(-258.42 -188.5)"/></g><g class="cls-6"><polygon class="cls-8" points="243.59 141.7 240.96 140.39 240.95 134.59 243.58 135.9 243.59 141.7"/><polygon class="cls-7" points="233.19 126.33 230.55 125.02 251.28 120.99 253.91 122.31 233.19 126.33"/><polygon class="cls-7" points="222.86 145.73 220.23 144.42 240.96 140.39 243.59 141.7 222.86 145.73"/><polygon class="cls-8" points="222.89 157.32 220.25 156 220.23 144.42 222.86 145.73 222.89 157.32"/><polygon class="cls-8" points="222.85 139.93 220.21 138.62 220.15 109.65 222.78 110.96 222.85 139.93"/><polygon class="cls-7" points="222.78 110.96 220.15 109.65 251.24 103.61 253.87 104.92 222.78 110.96"/><polygon class="cls-9" points="253.87 104.92 253.9 116.5 233.17 120.53 233.19 126.33 253.91 122.31 253.98 151.27 222.89 157.32 222.86 145.73 243.59 141.7 243.58 135.9 222.85 139.93 222.78 110.96 253.87 104.92"/></g><g class="cls-6"><polygon class="cls-8" points="279.89 146.24 277.26 144.92 277.18 110.15 279.81 111.47 279.89 146.24"/><polygon class="cls-7" points="269.42 101.9 266.79 100.58 287.52 96.55 290.15 97.87 269.42 101.9"/><polygon class="cls-8" points="259.17 150.27 256.54 148.95 256.38 85.21 259.02 86.53 259.17 150.27"/><polygon class="cls-7" points="259.02 86.53 256.38 85.21 266.75 83.2 269.38 84.51 259.02 86.53"/><polygon class="cls-9" points="269.38 84.51 269.42 101.9 290.15 97.87 290.26 144.22 279.89 146.24 279.81 111.47 269.45 113.48 269.53 148.25 259.17 150.27 259.02 86.53 269.38 84.51"/></g><g class="cls-6"><polygon class="cls-7" points="305.78 129.62 303.15 128.3 313.51 126.29 316.14 127.6 305.78 129.62"/><polygon class="cls-8" points="316.14 127.6 313.51 126.29 313.45 103.1 316.09 104.42 316.14 127.6"/><polygon class="cls-8" points="295.44 143.22 292.81 141.9 292.7 95.55 295.33 96.86 295.44 143.22"/><polygon class="cls-7" points="295.33 96.86 292.7 95.55 323.79 89.5 326.43 90.82 295.33 96.86"/><path class="cls-9" d="M553.75,285.36l31.1-6,.11,46.35-31.1,6Zm20.81,30.74,0-23.18-10.36,2,.05,23.19,10.36-2" transform="translate(-258.42 -188.5)"/></g><g class="cls-6"><polygon class="cls-7" points="342.06 122.56 339.42 121.25 349.79 119.24 352.42 120.55 342.06 122.56"/><polygon class="cls-8" points="352.42 120.55 349.79 119.24 349.74 96.05 352.37 97.36 352.42 120.55"/><polygon class="cls-8" points="331.76 153.55 329.12 152.24 328.97 88.5 331.61 89.81 331.76 153.55"/><polygon class="cls-7" points="331.61 89.81 328.97 88.5 360.07 82.45 362.7 83.77 331.61 89.81"/><path class="cls-9" d="M590,278.31l31.09-6,.11,46.35-20.73,4,0,17.38-10.36,2Zm20.81,30.74-.05-23.19-10.37,2,.06,23.18,10.36-2" transform="translate(-258.42 -188.5)"/></g><polygon class="cls-5" points="0 63.42 43 102.42 360.08 39 317.08 0 0 63.42"/></svg>